<?xml version="1.0" encoding="UTF-8" standalone="no" ?>
<!DOCTYPE svg PUBLIC "-//W3C//DTD SVG 1.1//EN" "http://www.w3.org/Graphics/SVG/1.1/DTD/svg11.dtd">
<svg xmlns="http://www.w3.org/2000/svg" xmlns:xlink="http://www.w3.org/1999/xlink" version="1.1" width="500" height="500" viewBox="0 0 500 500" xml:space="preserve">
<desc>Logo for RESEO</desc>
<defs>
</defs>
<g transform="matrix(1.7270393134 0 0 1.7270393134 250 250)" id="n_fAuHnSbyV3S6o67riQa"  >
<g style="" vector-effect="non-scaling-stroke"   >
		<g transform="matrix(3.6925794157 0 0 3.6925794157 121.7684558498 -47.6570677706)" id="zaBJpGKNh4OfTV3_jV9RK"  >
<linearGradient id="SVGID_18" gradientUnits="userSpaceOnUse" gradientTransform="matrix(1 0 0 1 0 0)"  x1="12.211374190625275" y1="87.94176855058481" x2="89.25556582488166" y2="10.897576916328413">
<stop offset="0%" style="stop-color:rgb(44,192,0);stop-opacity: 1"/>
<stop offset="100%" style="stop-color:rgb(11,46,0);stop-opacity: 1"/>
</linearGradient>
<path style="stroke: none; stroke-width: 1; stroke-dasharray: none; stroke-linecap: butt; stroke-dashoffset: 0; stroke-linejoin: miter; stroke-miterlimit: 4; fill: url(#SVGID_18); fill-rule: nonzero; opacity: 1;" vector-effect="non-scaling-stroke"  transform=" translate(-83.71, -36.5135)" d="M 88.588 49.717 C 88.568 50.074 88.981 49.946 89.059 50 C 88.938 49.396 88.48 49.734 88.588 49.717 z M 87.128 43.991 L 87.312 44.065 L 86.77 43.296 z M 85.941 38.738 C 85.397 39.43 86.543 40.591 86.54 41.589999999999996 L 86.42 41.778999999999996 L 87.089 42.07599999999999 C 86.704 40.94799999999999 85.968 39.583999999999996 85.941 38.73799999999999 z M 86.387 35.464 C 86.193 35.74 85.943 34.946 86.547 36.15 C 86.55199999999999 36.076 86.562 36.051 86.569 36.006 C 86.49922845245753 35.828519430569955 86.43848408760874 35.647621377009266 86.387 35.464 z M 86.569 36.006 C 86.792 36.555 86.653 35.56 86.569 36.006 z M 85.36200000000001 33.563 L 85.924 34.162 C 86.004 33.949 85.736 33.303 85.956 33.487 C 85.483 32.817 85.41 33.042 85.36200000000001 33.563 z M 84.575 33.13 L 84.842 33.442 C 84.874 33.349 84.849 33.243 84.575 33.13 z M 85.409 34.111000000000004 L 84.84200000000001 33.44200000000001 C 84.787 33.592000000000006 84.58100000000002 33.699000000000005 85.08200000000001 33.757000000000005 C 84.86000000000001 33.784000000000006 85.117 33.84700000000001 85.409 34.111000000000004 z M 85.516 34.587 C 85.57100000000001 35.035000000000004 85.66000000000001 35.591 85.15 34.979000000000006 C 85.75500000000001 36.29800000000001 86.17800000000001 35.909000000000006 85.516 34.587 z M 85.144 38.705000000000005 L 85.138 38.995000000000005 C 85.134 39.14000000000001 85.11200000000001 39.289 85.11200000000001 39.289 L 85.46100000000001 39.68 C 85.302 39.48 85.36500000000001 38.599 85.14400000000002 38.705 z M 83.373 29.128000000000007 C 83.21900000000001 29.168000000000006 83.16600000000001 29.566000000000006 83.03 29.717000000000006 L 83.475 30.114000000000004 C 83.41199999999999 29.810000000000006 83.20299999999999 29.282000000000004 83.37299999999999 29.128000000000004 z M 83.02900000000001 29.717000000000006 L 82.367 29.131000000000007 C 82.73400000000001 29.79200000000001 82.911 29.845000000000006 83.02900000000001 29.717000000000006 z M 83.805 33.357000000000006 L 84.894 34.358000000000004 L 83.68400000000001 33.124 z M 81.519 26.4 L 82.096 26.584999999999997 L 81.146 26.201999999999998 z M 80.132 24.706999999999997 C 80.60000000000001 24.790999999999997 80.173 24.017999999999997 80.569 24.188999999999997 C 80.12400000000001 23.773999999999997 79.59 23.556999999999995 79.116 23.370999999999995 C 79.536 23.645999999999994 79.865 24.056999999999995 80.132 24.706999999999994 z M 78.361 23.026999999999997 C 78.574 23.156999999999996 78.834 23.256999999999998 79.116 23.371 C 78.88493299844454 23.215648241556803 78.62985070518423 23.099425315885878 78.361 23.026999999999997 z M 81.629 27.891999999999996 C 81.665 27.786999999999995 81.786 27.547999999999995 81.581 27.102999999999994 L 81.434 27.620999999999995 L 81.62899999999999 27.891999999999996 z" stroke-linecap="round" />
</g>
		<g transform="matrix(3.6925794157 0 0 3.6925794157 97.6485271067 -87.1622796933)" id="xNsQaG9dKB-ht7OhOYfSZ"  >
<linearGradient id="SVGID_19" gradientUnits="userSpaceOnUse" gradientTransform="matrix(1 0 0 1 0 0)"  x1="12.211374190625275" y1="87.94176855058481" x2="89.25556582488166" y2="10.897576916328413">
<stop offset="0%" style="stop-color:rgb(44,192,0);stop-opacity: 1"/>
<stop offset="100%" style="stop-color:rgb(11,46,0);stop-opacity: 1"/>
</linearGradient>
<path style="stroke: none; stroke-width: 1; stroke-dasharray: none; stroke-linecap: butt; stroke-dashoffset: 0; stroke-linejoin: miter; stroke-miterlimit: 4; fill: url(#SVGID_19); fill-rule: nonzero; opacity: 1;" vector-effect="non-scaling-stroke"  transform=" translate(-77.178, -25.8149590952)" d="M 81.431 27.638 L 81.435 27.621000000000002 L 81.024 27.03 L 81.431 27.638 z M 81.678 27.96 L 81.62899999999999 27.892 C 81.61399999999999 27.942 81.61399999999999 27.965 81.678 27.96 z M 83.14 31.244 C 82.676 30.938 81.936 30.213 82.127 31.23 C 82.56 31.379 82.446 30.792 83.14 31.244 z M 81.484 28.593 C 81.505 28.579 81.875 29.396 81.875 29.396 C 81.961 29.32 82.015 29.093 82.242 29.237000000000002 C 82.242 29.237000000000002 81.50500000000001 28.576 81.48400000000001 28.593000000000004 z M 81.112 28.322 L 81.484 28.593 L 81.317 28.309 z M 79.112 24.448 C 78.71 24.282 78.414 23.979 78.06899999999999 23.645 C 78.35399999999998 24.082 78.67499999999998 24.505 79.01399999999998 24.876 C 79.16299999999998 24.84 79.49599999999998 24.849 79.11199999999998 24.448 z M 80.25699999999999 25.988 L 80.18599999999999 25.934 C 80.19 25.999000000000002 80.20599999999999 26.040000000000003 80.25699999999999 25.988 z M 74.65899999999999 20.387999999999998 L 74.66499999999999 20.499 L 74.726 20.453999999999997 z M 79.011 24.991999999999997 C 79.20599999999999 25.33 79.439 25.432 79.688 25.511999999999997 C 79.44916306019967 25.315538276869535 79.22397591797503 25.103047145630853 79.014 24.875999999999998 C 78.947 24.891999999999996 78.91199999999999 24.913999999999998 79.011 24.991999999999997 z M 77.29599999999999 22.205 L 77.607 22.845999999999997 C 77.579 22.597999999999995 77.42999999999999 22.170999999999996 77.29599999999999 22.205 z M 80.19999999999999 25.755 L 80.24999999999999 25.79 C 80.24399999999999 25.631 80.21899999999998 25.671 80.19999999999999 25.755 z M 80.19999999999999 25.755 C 80.03099999999999 25.634 79.85699999999999 25.575 79.68799999999999 25.511 C 79.85699999999999 25.675 80.02299999999998 25.822 80.18599999999999 25.933999999999997 C 80.18208298306094 25.873970850534715 80.18679767033085 25.813690206155144 80.19999999999999 25.755 z M 71.84899999999999 21.686999999999998 C 72.12299999999999 21.423999999999996 73.17499999999998 21.660999999999998 73.48599999999999 22.570999999999998 C 74.27799999999999 22.889999999999997 74.75999999999999 21.566999999999997 74.66499999999999 20.499 C 74.529 20.622 74.449 20.709 73.598 20.375 C 73.741 20.696 74.736 22.009 73.965 21.794 C 72.997 21.194 73.333 21.11 73.033 20.595 C 73.098 21.259 71.444 20.302999999999997 71.21600000000001 21.038 L 72.14300000000001 21.412 C 72.08700000000002 21.511 71.69900000000001 21.445 71.84900000000002 21.686999999999998 z M 75.88799999999999 21.662 L 76.19099999999999 21.871 C 75.92999999999999 21.541 75.81799999999998 21.224 75.61099999999999 20.618 C 75.02799999999999 20.351999999999997 74.84199999999998 20.381 74.72599999999998 20.453 L 76.02099999999999 21.701999999999998 L 75.88799999999999 21.662 z" stroke-linecap="round" />
</g>
		<g transform="matrix(3.6925794157 0 0 3.6925794157 1.3156684369 -18.7890137013)" id="XTg84KqXqelCHLyk6yWSj"  >
<linearGradient id="SVGID_20" gradientUnits="userSpaceOnUse" gradientTransform="matrix(1 0 0 1 0 0)"  x1="12.211374190625275" y1="87.94176855058481" x2="89.25556582488166" y2="10.897576916328413">
<stop offset="0%" style="stop-color:rgb(44,192,0);stop-opacity: 1"/>
<stop offset="100%" style="stop-color:rgb(11,46,0);stop-opacity: 1"/>
</linearGradient>
<path style="stroke: none; stroke-width: 1; stroke-dasharray: none; stroke-linecap: butt; stroke-dashoffset: 0; stroke-linejoin: miter; stroke-miterlimit: 4; fill: url(#SVGID_20); fill-rule: nonzero; opacity: 1;" vector-effect="non-scaling-stroke"  transform=" translate(-51.0897706551, -44.3313559808)" d="M 77.385 22.99 C 76.9 23.064999999999998 76.11500000000001 22.644 76.18400000000001 23.323999999999998 C 76.95100000000001 24.025999999999996 76.94400000000002 23.596999999999998 77.513 23.923 C 76.287 22.737 78.018 24.121 77.358 23.034999999999997 C 77.63900000000001 23.233999999999998 77.861 23.443999999999996 78.069 23.644999999999996 C 77.90091800001218 23.386874292917103 77.74637589594312 23.12018068351931 77.60600000000001 22.845999999999997 L 77.614 22.893999999999995 L 77.62 22.899999999999995 L 77.61500000000001 22.902999999999995 C 77.62700000000001 22.995999999999995 77.62 23.036999999999995 77.58500000000001 22.953999999999994 C 77.578 22.952999999999992 77.56200000000001 22.938999999999993 77.554 22.932999999999993 C 77.50251630434782 22.9631743979106 77.4452915952681 22.982249300937173 77.386 22.988999999999994 C 77.112 22.556999999999995 77.41199999999999 22.851999999999993 77.554 22.932999999999993 C 77.574 22.921999999999993 77.59700000000001 22.917999999999992 77.61500000000001 22.90299999999999 L 77.614 22.894999999999992 C 77.64500000000001 22.85899999999999 76.191 21.871999999999993 76.191 21.871999999999993 C 76.414 22.168999999999993 76.784 22.442999999999994 77.385 22.98999999999999 z M 80.875 30.953 C 80.881 30.89 80.908 30.875 80.933 30.855999999999998 C 80.83200000000001 30.793 80.781 30.778 80.875 30.953 z M 80.744 30.238 C 80.857 30.308 81.054 30.301 81.219 30.658 C 81.285 31.015 81.04299999999999 30.765 80.93199999999999 30.855 C 81.14899999999999 30.992 81.62299999999999 31.397000000000002 81.41799999999999 30.655 L 81.30699999999999 30.586000000000002 C 81.08899999999998 29.941000000000003 81.08299999999998 28.899 81.192 28.966 C 80.95635767470584 29.354479454186986 80.80381429519382 29.787593692444347 80.744 30.238000000000003 z M 79.167 26.597 C 79.167 26.597 78.93 26.338 78.651 26.116 L 78.10199999999999 25.668 L 78.29199999999999 26.432 L 78.43999999999998 26.261999999999997 C 78.87799999999999 26.921999999999997 78.96599999999998 26.631999999999998 79.16699999999999 26.596999999999998 z M 74.673 20.112000000000002 L 75.108 19.891000000000002 C 75.119 19.872000000000003 74.042 19.869000000000003 74.042 19.869000000000003 L 74.673 20.112000000000002 z M 73.134 19.022000000000002 L 73.427 18.748 L 72.884 18.64 z M 20.952 67.197 L 21.241000000000003 67.456 C 21.15537895241145 67.35841203825508 21.058351330470337 67.27145648779575 20.952 67.197 z M 19.699 64.82000000000001 L 19.495 64.846 C 19.646 64.912 19.739 64.922 19.699 64.82000000000001 z M 29.678 17.15700000000001 C 28.956 17.16300000000001 28.035 17.05600000000001 28.346 17.38700000000001 L 28.749 17.64900000000001 C 29.010905791400308 17.40741711501925 29.330994887570714 17.237897378403705 29.677999999999997 17.15700000000001 z M 14.64 42.905 L 14.794 42.764 L 14.485000000000001 42.300000000000004 C 14.534 42.483000000000004 14.563 42.685 14.64 42.905 z M 16.342 43.639 L 15.956999999999999 44.309000000000005 C 16.079 44.163000000000004 16.206 43.94800000000001 16.342 43.639 z M 31.16 77.485 L 31.455000000000002 77.431 L 31.757 77.361 C 31.209000000000003 76.994 31.329 77.33200000000001 31.16 77.485 z M 55.480000000000004 11.888999999999996 C 55.07259339068401 11.681129360140883 54.64000192260551 11.526848486910085 54.193000000000005 11.429999999999996 C 54.807 11.773999999999996 55.26200000000001 12.220999999999997 55.480000000000004 11.888999999999996 z M 16.369 68.517 C 16.572 68.7 16.705 68.75099999999999 16.786 68.697 C 16.584 68.507 16.433 68.418 16.369 68.517 z M 52.648 11.327999999999996 C 52.739000000000004 11.375999999999996 52.830000000000005 11.402999999999995 52.923 11.443999999999996 C 53.318000000000005 11.400999999999996 53.721000000000004 11.332999999999995 54.192 11.429999999999996 C 53.741 11.177999999999995 53.193 11.064999999999996 52.648 11.327999999999996 z M 77.934 68.842 C 77.971 68.82 78.002 68.785 78.03999999999999 68.768 C 77.996 68.725 77.967 68.77 77.934 68.842 z M 87.694 55.068 C 87.696 55.242 87.654 55.519999999999996 87.619 55.783 C 87.669 55.660000000000004 87.699 55.444 87.694 55.068 z M 66.747 14.937 C 67.121 15.085999999999999 66.825 14.921999999999999 66.747 14.937 z M 67.687 17.296 C 67.591 17.303 67.505 17.331 67.449 17.415 C 67.510889759436 17.34726909970587 67.59568142410309 17.304873267372322 67.687 17.296 z M 48.759 13.960999999999999 L 48.727000000000004 13.960999999999999 C 48.84 14.04 48.821000000000005 14.024999999999999 48.759 13.960999999999999 z M 67.203 15.375999999999998 C 67.07862412324933 15.251574623357982 66.9434244341479 15.138462012179064 66.799 15.037999999999997 C 66.85900000000001 15.104 66.98100000000001 15.209999999999999 67.203 15.375999999999998 z M 67.22200000000001 15.156999999999998 L 67.519 15.346999999999998 C 67.59700000000001 15.304999999999998 67.57700000000001 15.244999999999997 67.22200000000001 15.156999999999998 z" stroke-linecap="round" />
</g>
		<g transform="matrix(3.6925794157 0 0 3.6925794157 -17.925516024 0.7803427143)" id="-QSYcn6V5CjKHKIkscWIG"  >
<linearGradient id="SVGID_21" gradientUnits="userSpaceOnUse" gradientTransform="matrix(1 0 0 1 0 0)"  x1="12.211374190625275" y1="87.94176855058481" x2="89.25556582488166" y2="10.897576916328413">
<stop offset="0%" style="stop-color:rgb(44,192,0);stop-opacity: 1"/>
<stop offset="100%" style="stop-color:rgb(11,46,0);stop-opacity: 1"/>
</linearGradient>
<path style="stroke: none; stroke-width: 1; stroke-dasharray: none; stroke-linecap: butt; stroke-dashoffset: 0; stroke-linejoin: miter; stroke-miterlimit: 4; fill: url(#SVGID_21); fill-rule: nonzero; opacity: 1;" vector-effect="non-scaling-stroke"  transform=" translate(-45.879, -49.631)" d="M 66.233 14.716 C 66.443 14.809 66.62700000000001 14.92 66.799 15.037999999999998 C 66.741 14.976999999999999 66.721 14.940999999999999 66.747 14.936999999999998 L 66.233 14.715999999999998 z M 54.572 84.517 C 54.597 84.527 54.626000000000005 84.53099999999999 54.654 84.54599999999999 C 54.98800000000001 84.31299999999999 54.834 84.365 54.572 84.517 z M 24.994 26.796 C 25.002 26.781 24.999 26.767 25.006 26.753 L 24.959 26.781 L 24.994 26.796 z" stroke-linecap="round" />
</g>
		<g transform="matrix(3.6925794157 0 0 3.6925794157 -97.4027490771 -82.4263955485)" id="HSvd1QcdNH_T7ST_zvr0o"  >
<linearGradient id="SVGID_22" gradientUnits="userSpaceOnUse" gradientTransform="matrix(1 0 0 1 0 0)"  x1="12.211374190625275" y1="87.94176855058481" x2="89.25556582488166" y2="10.897576916328413">
<stop offset="0%" style="stop-color:rgb(44,192,0);stop-opacity: 1"/>
<stop offset="100%" style="stop-color:rgb(11,46,0);stop-opacity: 1"/>
</linearGradient>
<path style="stroke: none; stroke-width: 1; stroke-dasharray: none; stroke-linecap: butt; stroke-dashoffset: 0; stroke-linejoin: miter; stroke-miterlimit: 4; fill: url(#SVGID_22); fill-rule: nonzero; opacity: 1;" vector-effect="non-scaling-stroke"  transform=" translate(-24.3555, -27.0975)" d="M 24.387 27.944 C 24.34 27.195 24.602 27.003999999999998 24.96 26.779999999999998 L 23.751 26.250999999999998 L 24.063000000000002 27.104999999999997 L 24.387000000000004 27.943999999999996 z" stroke-linecap="round" />
</g>
		<g transform="matrix(3.6925794157 0 0 3.6925794157 -2.0419964165 0)" id="Zu6D03_S6tgoJ5BWWLg4a"  >
<linearGradient id="SVGID_23" gradientUnits="userSpaceOnUse" gradientTransform="matrix(1 0 0 1 0 0)"  x1="12.211374190625275" y1="87.94176855058481" x2="89.25556582488166" y2="10.897576916328413">
<stop offset="0%" style="stop-color:rgb(44,192,0);stop-opacity: 1"/>
<stop offset="100%" style="stop-color:rgb(11,46,0);stop-opacity: 1"/>
</linearGradient>
<path style="stroke: none; stroke-width: 1; stroke-dasharray: none; stroke-linecap: butt; stroke-dashoffset: 0; stroke-linejoin: miter; stroke-miterlimit: 4; fill: url(#SVGID_23); fill-rule: nonzero; opacity: 1;" vector-effect="non-scaling-stroke"  transform=" translate(-50.1804700078, -49.4196727335)" d="M 24.838 72.309 L 24.546 71.41 C 25.739 71.764 26.058999999999997 72.447 25.933999999999997 71.496 C 25.404999999999998 71.89399999999999 24.764999999999997 71.33699999999999 24.24 70.687 C 23.715 70.03699999999999 23.186 69.39099999999999 22.598 69.737 L 22.483999999999998 69.11 C 22.572 69.249 22.653 69.225 22.74 69.362 C 22.599 68.109 21.442 69.246 20.825 67.87899999999999 C 20.647 67.38499999999999 20.633 66.984 20.951999999999998 67.19699999999999 L 20.069999999999997 66.39499999999998 C 19.927999999999997 66.09499999999998 20.170999999999996 66.05699999999999 20.318999999999996 66.34899999999998 L 20.166999999999994 66.12499999999997 L 19.877999999999993 65.60699999999997 L 19.454999999999995 64.85199999999998 L 19.495999999999995 64.84599999999998 C 19.198999999999995 64.71799999999998 18.654999999999994 64.34899999999998 18.404999999999994 64.15399999999998 C 18.388999999999996 63.67199999999998 18.633999999999993 64.29699999999998 18.737999999999992 64.12399999999998 C 18.737999999999992 64.12399999999998 18.002999999999993 63.38699999999998 18.023999999999994 63.37499999999998 C 18.119999999999994 63.119999999999976 18.312999999999995 63.15199999999998 18.508999999999993 63.32199999999998 C 18.723999999999993 63.48499999999998 18.948999999999995 63.78199999999998 19.069999999999993 64.09099999999998 C 19.493999999999993 63.40899999999998 19.330999999999992 63.27699999999998 19.049999999999994 63.04199999999998 C 18.796999999999993 62.80099999999998 18.427999999999994 62.445999999999984 18.470999999999993 61.41099999999998 L 18.936999999999994 62.18699999999998 C 19.459999999999994 61.374999999999986 18.965999999999994 60.83099999999998 19.080999999999992 59.762999999999984 C 18.91699999999999 60.03599999999999 18.624999999999993 62.02299999999998 17.95199999999999 61.173999999999985 C 17.95199999999999 60.862999999999985 17.85299999999999 60.49599999999999 17.41599999999999 60.04399999999998 C 17.87599999999999 59.89599999999998 17.62999999999999 59.405999999999985 17.43399999999999 58.752999999999986 L 18.06399999999999 58.630999999999986 C 17.70599999999999 57.978999999999985 17.402999999999988 58.11199999999999 17.01499999999999 57.75799999999999 C 16.86899999999999 56.94399999999999 17.30699999999999 56.68199999999999 17.69799999999999 56.41299999999999 C 17.60699999999999 55.11599999999999 17.05199999999999 57.45599999999999 16.70299999999999 55.947999999999986 C 16.74168621076958 55.441785989999374 16.676345163699732 54.933010649533635 16.51099999999999 54.45299999999999 C 16.35799999999999 53.97599999999999 16.088999999999988 53.48299999999999 15.891999999999989 52.83299999999999 C 16.07499999999999 52.04299999999999 16.288999999999987 52.93699999999999 16.457999999999988 52.645999999999994 L 15.914999999999988 51.998999999999995 C 15.918999999999988 51.83 16.07799999999999 51.876 16.157999999999987 51.898999999999994 C 15.930999999999987 51.331999999999994 15.516999999999987 51.88799999999999 15.296999999999986 50.971999999999994 C 14.947999999999986 50.85699999999999 15.148999999999987 50.36899999999999 15.407999999999987 49.788 C 15.683999999999987 49.202999999999996 15.952999999999987 48.534 15.581999999999987 47.94499999999999 C 15.776999999999987 47.67699999999999 15.966999999999986 48.102999999999994 16.217999999999986 48.03099999999999 C 15.770999999999987 46.45499999999999 15.869999999999985 46.68899999999999 15.375999999999985 45.33099999999999 L 15.956999999999985 44.30699999999999 C 15.361999999999984 45.027999999999984 14.953999999999985 43.92799999999999 14.638999999999985 42.90199999999999 C 14.366999999999985 43.149999999999984 14.127999999999986 43.36799999999999 14.006999999999985 43.52099999999999 L 13.953999999999985 42.73699999999999 C 13.934999999999985 42.344999999999985 13.960999999999984 41.957999999999984 13.960999999999984 41.957999999999984 C 14.108999999999984 41.80099999999999 14.284999999999984 42.00099999999998 14.484999999999985 42.295999999999985 C 14.46234871088232 42.194546656484306 14.435323496830671 42.0941196264899 14.403999999999986 41.99499999999998 C 14.768999999999986 41.52299999999998 15.057999999999986 41.883999999999986 15.312999999999986 42.32499999999998 L 14.793999999999986 42.759999999999984 C 15.118999999999986 43.20299999999998 15.491999999999987 43.612999999999985 15.871999999999986 43.606999999999985 C 15.812999999999986 43.50099999999998 15.777999999999986 43.30999999999999 15.772999999999985 43.10599999999999 C 15.861999999999986 43.21899999999999 15.945999999999986 43.295999999999985 16.015999999999984 43.265999999999984 C 16.094999999999985 43.231999999999985 15.957999999999984 43.05299999999998 15.865999999999984 42.79199999999999 L 16.644999999999985 42.62699999999999 L 16.387999999999984 42.48999999999999 L 17.282999999999983 40.79999999999999 C 17.192999999999984 40.43199999999999 17.075999999999983 40.06199999999999 16.967999999999982 39.68199999999999 C 16.880468443244066 39.295532188561275 16.80741741652604 38.9059267127318 16.74899999999998 38.51399999999999 C 16.64599999999998 37.69899999999999 16.583999999999982 36.755999999999986 16.886999999999983 35.676999999999985 C 17.128999999999984 36.377999999999986 17.621999999999982 36.11699999999998 18.176999999999982 36.390999999999984 C 17.34199999999998 36.67899999999998 17.860999999999983 38.04799999999999 17.354999999999983 39.01999999999998 C 17.617999999999984 38.50299999999998 17.852999999999984 38.72099999999998 17.899999999999984 38.88899999999998 L 18.011999999999983 36.84399999999998 C 18.461999999999982 37.07699999999998 18.496999999999982 36.59499999999998 18.925999999999984 36.22999999999998 C 17.840999999999983 36.17499999999998 18.954999999999984 34.636999999999986 19.031999999999986 33.76699999999998 C 19.349999999999987 33.878999999999984 19.572999999999986 34.210999999999984 19.078999999999986 35.04899999999998 C 20.223999999999986 34.44299999999998 18.597999999999985 33.22799999999998 19.743999999999986 32.62399999999998 C 19.625999999999987 32.83399999999998 19.512999999999984 32.91999999999998 19.612999999999985 33.08499999999998 C 19.645999999999987 32.45699999999998 20.566999999999986 31.39799999999998 20.644999999999985 31.830999999999978 L 20.526999999999987 32.037999999999975 C 20.75799999999999 31.714999999999975 21.028999999999986 31.296999999999976 21.296999999999986 30.840999999999976 C 21.582999999999988 30.395999999999976 21.913999999999987 29.943999999999978 22.170999999999985 29.488999999999976 C 22.700999999999986 28.591999999999977 23.020999999999987 27.723999999999975 22.790999999999986 27.371999999999975 C 22.884999999999987 27.430999999999976 23.436999999999987 28.181999999999974 23.519999999999985 28.368999999999975 C 23.519999999999985 28.368999999999975 23.480999999999984 28.112999999999975 23.460999999999984 27.748999999999974 L 23.380999999999986 26.375999999999973 C 23.333999999999985 25.363999999999972 23.329999999999988 24.30499999999997 23.329999999999988 24.30499999999997 C 23.69099999999999 24.99399999999997 25.58099999999999 25.497999999999973 25.002999999999986 26.750999999999973 C 25.342999999999986 26.555999999999973 25.694999999999986 26.264999999999972 26.094999999999985 25.552999999999972 C 25.832999999999984 25.642999999999972 24.878999999999984 25.242999999999974 25.089999999999986 24.948999999999973 C 26.382999999999985 24.872999999999973 25.903999999999986 24.797999999999973 27.248999999999985 24.511999999999972 C 26.860999999999983 24.65399999999997 26.408999999999985 23.515999999999973 26.900999999999986 23.117999999999974 C 26.940999999999985 23.312999999999974 27.674999999999986 23.940999999999974 27.589999999999986 24.179999999999975 L 27.785999999999987 23.240999999999975 C 27.896999999999988 22.778999999999975 28.040999999999986 22.334999999999976 28.040999999999986 22.334999999999976 C 27.856999999999985 22.724999999999977 28.584999999999987 23.116999999999976 29.047999999999988 23.169999999999977 C 28.787999999999986 23.087999999999976 30.096999999999987 22.411999999999978 30.349999999999987 22.081999999999976 L 29.686999999999987 22.252999999999975 C 31.125999999999987 21.356999999999974 30.180999999999987 19.971999999999976 31.72599999999999 19.083999999999975 C 31.65699999999999 19.396999999999974 32.02499999999999 20.575999999999976 32.828999999999986 20.250999999999976 C 32.85899999999999 19.910999999999976 32.86999999999998 19.043999999999976 33.094999999999985 18.185999999999975 C 33.316999999999986 17.329999999999973 33.71899999999999 16.402999999999974 34.36499999999999 15.845999999999975 L 34.78299999999999 16.010999999999974 L 35.26999999999999 15.568999999999974 C 35.51399999999999 15.345999999999973 35.77899999999999 15.164999999999974 35.77899999999999 15.164999999999974 C 35.563999999999986 15.675999999999974 35.17599999999999 16.638999999999974 34.76899999999999 17.552999999999976 C 34.36299999999999 18.476999999999975 33.94499999999999 19.370999999999977 33.63099999999999 19.926999999999975 C 34.31999999999999 19.871999999999975 33.971999999999994 20.190999999999974 34.80599999999999 19.753999999999976 C 35.24099999999999 19.887999999999977 34.55899999999999 20.391999999999978 34.32299999999999 20.523999999999976 L 36.349999999999994 19.769999999999975 C 36.16799999999999 19.484999999999975 36.471 19.150999999999975 36.788999999999994 18.824999999999974 C 37.12 18.532999999999973 37.46999999999999 18.260999999999974 37.32699999999999 18.013999999999974 L 37.01299999999999 18.243999999999975 C 36.82199999999999 18.373999999999974 36.57799999999999 18.566999999999975 36.34799999999999 18.786999999999974 L 35.42199999999999 19.620999999999974 C 35.23299999999999 19.339999999999975 35.33499999999999 18.760999999999974 35.69099999999999 18.168999999999976 C 36.07785561432554 17.496287824656104 36.71530370705733 17.00409017155412 37.46399999999999 16.799999999999976 C 37.94199999999999 16.909999999999975 37.599999999999994 18.024999999999977 37.71799999999999 18.219999999999978 C 37.82199999999999 17.936999999999976 38.96799999999999 17.291999999999977 39.15599999999999 17.396999999999977 L 38.648999999999994 17.965999999999976 C 39.096999999999994 17.935999999999975 39.355 17.603999999999978 39.65899999999999 17.305999999999976 C 39.962999999999994 17.016999999999975 40.33099999999999 16.816999999999975 40.92399999999999 16.988999999999976 C 41.29299999999999 16.938999999999975 42.17699999999999 17.560999999999975 42.14099999999999 17.158999999999978 C 41.404999999999994 16.556999999999977 40.66599999999999 14.295999999999978 40.94799999999999 13.628999999999978 C 41.02199999999999 13.636999999999977 41.57099999999999 13.684999999999977 42.153999999999996 13.766999999999978 C 42.733999999999995 13.827999999999978 43.373 14.052999999999978 43.619 14.190999999999978 C 44.333 14.690999999999978 42.956 15.741999999999978 43.573 16.169999999999977 C 43.56 15.985999999999978 43.85 15.712999999999976 43.976 15.619999999999976 C 44.385 15.716999999999976 43.916 16.204999999999977 44.725 15.996999999999977 C 44.761 15.302999999999976 46.418 15.795999999999976 45.033 15.366999999999976 C 45.828 15.068999999999976 45.915 15.326999999999977 46.876000000000005 15.242999999999975 C 46.51800000000001 14.819999999999975 47.63 13.705999999999975 48.501000000000005 13.465999999999976 C 48.45700000000001 13.641999999999976 48.660000000000004 13.857999999999976 48.755 13.955999999999976 C 49.192 13.948999999999977 49.578 13.960999999999977 49.936 13.979999999999976 C 50.294 14.023999999999976 50.624 14.093999999999976 50.949 14.150999999999975 C 51.599 14.269999999999975 52.229 14.380999999999975 53.034 14.423999999999975 C 53.171 14.589999999999975 53.919 14.843999999999975 53.563 15.108999999999975 C 53.800000000000004 15.018999999999975 54.034 14.823999999999975 54.524 14.881999999999975 C 55.385 15.609999999999975 53.434 14.806999999999976 54.063 15.620999999999976 C 54.167 15.236999999999975 55.373000000000005 15.267999999999976 56.111000000000004 15.130999999999975 C 56.00000000000001 14.494999999999976 54.50900000000001 14.767999999999976 53.797000000000004 14.907999999999975 C 53.874 14.067999999999975 55.214000000000006 13.376999999999974 57.043000000000006 13.262999999999975 C 58.465 13.309999999999976 57.52400000000001 13.920999999999975 57.78900000000001 13.841999999999976 C 59.03200000000001 14.236999999999975 59.659000000000006 14.017999999999976 60.23700000000001 13.845999999999975 C 60.81200000000001 13.671999999999976 61.345000000000006 13.525999999999975 62.284000000000006 14.216999999999976 C 62.92700000000001 15.023999999999976 61.968 15.238999999999976 62.023 15.671999999999976 C 61.467000000000006 15.580999999999976 61.099000000000004 15.342999999999975 60.766000000000005 15.123999999999976 C 60.42700000000001 14.924999999999976 60.13400000000001 14.714999999999975 59.763000000000005 14.629999999999976 L 60.595000000000006 15.106999999999976 C 60.199000000000005 15.189999999999976 59.45100000000001 15.136999999999976 59.10000000000001 14.885999999999976 C 59.66700000000001 15.456999999999976 63.223000000000006 16.183999999999976 64.80000000000001 17.461999999999975 C 65.18400000000001 17.447999999999976 65.80900000000001 17.540999999999976 65.64500000000001 17.221999999999976 L 65.05100000000002 17.018999999999977 C 64.70700000000002 16.37199999999998 66.37400000000001 16.99099999999998 65.73900000000002 16.459999999999976 C 66.18900000000002 16.506999999999977 66.68700000000001 16.529999999999976 67.19900000000001 16.635999999999974 C 67.45500000000001 16.688999999999975 67.71500000000002 16.761999999999976 67.97000000000001 16.870999999999974 C 68.21400000000001 17.000999999999973 68.45500000000001 17.165999999999976 68.686 17.376999999999974 L 68.57400000000001 18.025999999999975 C 68.644 17.859999999999975 68.08000000000001 17.296999999999976 67.69800000000001 17.288999999999977 C 68.275 17.313999999999975 68.852 18.957999999999977 69.739 18.555999999999976 L 69.23400000000001 17.751999999999978 C 70.117 17.952999999999978 71.462 17.91599999999998 72.21400000000001 18.77599999999998 C 72.156 17.981999999999978 71.97900000000001 18.67799999999998 71.73400000000001 17.63099999999998 C 71.83000000000001 18.719999999999978 69.319 16.11499999999998 69.769 17.47399999999998 C 69.492 16.370999999999977 68.786 16.41099999999998 68.156 15.330999999999978 C 68.09200000000001 15.524999999999979 68.316 15.837999999999978 67.51700000000001 15.340999999999978 C 67.43216810020465 15.376000665533626 67.343050496445 15.399541164639947 67.25200000000001 15.410999999999978 L 67.20200000000001 15.369999999999978 L 67.23800000000001 15.413999999999978 C 67.18800000000002 15.423999999999978 67.18200000000002 15.427999999999978 67.25200000000001 15.428999999999979 C 67.412 15.605999999999979 67.52600000000001 15.77799999999998 67.54 15.909999999999979 C 66.91300000000001 16.12199999999998 65.611 15.47899999999998 65.072 15.487999999999978 C 64.622 15.164999999999978 65.369 15.372999999999978 65.18900000000001 15.046999999999978 L 64.78500000000001 15.052999999999978 L 64.37200000000001 15.089999999999979 C 64.48200000000001 14.65299999999998 63.277000000000015 13.891999999999978 64.60000000000001 14.098999999999979 L 63.50100000000001 13.673999999999978 C 62.936000000000014 13.204999999999979 62.061000000000014 12.759999999999978 61.442000000000014 12.764999999999977 C 60.926000000000016 12.529999999999978 59.94400000000002 12.890999999999977 60.50800000000002 12.672999999999977 L 58.65400000000002 12.483999999999977 L 58.66300000000002 12.370999999999977 C 57.795000000000016 12.079999999999977 56.82500000000002 12.167999999999978 55.86400000000002 12.102999999999977 C 54.85294119686909 12.056746285183848 53.85799539274029 11.832299511404539 52.92500000000002 11.439999999999976 C 52.304000000000016 11.520999999999976 51.67200000000002 11.627999999999977 50.65600000000002 11.450999999999976 L 50.46200000000002 11.052999999999976 C 49.679000000000016 11.136999999999976 48.07200000000002 10.753999999999976 47.750000000000014 11.156999999999975 C 47.52200000000001 10.906999999999975 47.16300000000001 10.779999999999974 46.73000000000001 10.729999999999976 C 46.29700000000001 10.669999999999975 45.79300000000001 10.703999999999976 45.28300000000001 10.823999999999975 C 44.25600000000001 11.028999999999975 43.19100000000001 11.352999999999975 42.48000000000001 11.369999999999974 L 42.52500000000001 11.875999999999975 C 41.579000000000015 12.017999999999974 40.72700000000001 12.432999999999975 39.63800000000001 12.908999999999974 L 39.82800000000001 13.322999999999974 C 38.94900000000001 13.868999999999973 37.27900000000001 13.796999999999974 35.77900000000001 14.389999999999974 C 35.81700000000001 14.192999999999975 36.21700000000001 14.092999999999973 36.52300000000001 14.091999999999974 C 35.985000000000014 14.018999999999973 35.488000000000014 14.115999999999973 35.02400000000001 14.298999999999975 C 34.571000000000005 14.506999999999975 34.16300000000001 14.827999999999975 33.76200000000001 15.137999999999975 C 32.970000000000006 15.782999999999975 32.20600000000001 16.362999999999975 31.29200000000001 16.494999999999976 C 31.076168394212193 16.786841102107417 30.7530572592813 16.980779745456804 30.39400000000001 17.033999999999978 C 30.425183912407277 17.014246810930516 30.45205493770364 16.98839620431629 30.47300000000001 16.957999999999977 C 30.43300000000001 16.976999999999975 30.37600000000001 17.009999999999977 30.31800000000001 17.044999999999977 C 30.11500000000001 17.077999999999978 29.90000000000001 17.103999999999978 29.67900000000001 17.15399999999998 C 29.866686999001896 17.157916957112064 30.054130795821703 17.138433551707855 30.23700000000001 17.09599999999998 C 29.957000000000008 17.27699999999998 29.55400000000001 17.58699999999998 29.19400000000001 17.937999999999978 L 28.75000000000001 17.64499999999998 L 28.65900000000001 17.71599999999998 C 28.14100000000001 17.82499999999998 28.45200000000001 18.10899999999998 28.87400000000001 18.27599999999998 C 28.71484369932093 18.454775790670606 28.59038700329792 18.66163841893773 28.50700000000001 18.885999999999978 C 27.744000000000007 18.48599999999998 27.637000000000008 19.861999999999977 26.71200000000001 19.518999999999977 C 26.70100000000001 19.779999999999976 26.25200000000001 20.210999999999977 25.85100000000001 20.67699999999998 C 25.48300000000001 21.18399999999998 25.16700000000001 21.72699999999998 25.35500000000001 22.13099999999998 C 25.269000000000013 22.05899999999998 25.129000000000012 22.11499999999998 25.31700000000001 21.93399999999998 C 24.856000000000012 22.22199999999998 24.388000000000012 22.516999999999978 24.19700000000001 23.01499999999998 L 23.60000000000001 22.73299999999998 L 23.451000000000008 23.42599999999998 L 23.348000000000006 24.14699999999998 C 22.604000000000006 24.41099999999998 22.235000000000007 24.493999999999982 22.380000000000006 23.63499999999998 C 21.747000000000007 25.41499999999998 21.617000000000004 24.862999999999982 21.204000000000008 26.41999999999998 L 20.941000000000006 26.11199999999998 C 20.636000000000006 26.54399999999998 20.559000000000005 27.53099999999998 20.112000000000005 27.58299999999998 C 18.703000000000007 28.019999999999982 16.775000000000006 32.28099999999998 14.966000000000005 34.78099999999998 C 15.632000000000005 34.751999999999974 15.346000000000005 35.00899999999998 15.026000000000005 35.34999999999998 C 14.724000000000006 35.69899999999998 14.356000000000005 36.12999999999998 14.757000000000005 36.34899999999998 C 14.440000000000005 36.41299999999998 14.146000000000004 36.76099999999998 14.094000000000005 36.20999999999998 C 13.828000000000005 37.76899999999998 12.816000000000004 38.28299999999998 13.313000000000004 39.55699999999998 C 13.002000000000004 39.65499999999998 13.009000000000004 39.12199999999998 12.811000000000003 39.22999999999998 C 12.837000000000003 39.36999999999998 12.917000000000003 39.77899999999998 12.717000000000004 39.893999999999984 C 12.519000000000004 40.006999999999984 12.551000000000004 39.609999999999985 12.499000000000004 39.332999999999984 C 12.136000000000005 40.923999999999985 12.926000000000004 41.27299999999998 13.674000000000005 41.560999999999986 C 13.393000000000004 41.899999999999984 13.238000000000005 42.17199999999998 13.204000000000004 42.43999999999998 C 13.194000000000004 42.71199999999998 13.298000000000004 42.97999999999998 13.513000000000003 43.30599999999998 C 13.216000000000003 43.52699999999998 12.876000000000003 43.94099999999998 12.932000000000004 42.95999999999999 C 12.819000000000004 43.48699999999999 12.027000000000005 46.23899999999999 12.693000000000003 46.35799999999999 C 12.522000000000004 46.51299999999999 12.606000000000003 47.11599999999999 12.673000000000004 47.26399999999999 C 12.573000000000004 48.481999999999985 12.510000000000003 48.58999999999999 12.511000000000003 49.79099999999999 L 12.631000000000002 49.45999999999999 C 13.357000000000003 49.93799999999999 12.800000000000002 50.44699999999999 12.939000000000002 51.408999999999985 L 12.859000000000002 51.384999999999984 C 12.636000000000001 52.49899999999998 12.715000000000002 52.73999999999998 12.784000000000002 52.96899999999999 C 12.879000000000003 53.198999999999984 12.849000000000002 53.42599999999999 12.721000000000002 54.54399999999999 L 13.180000000000001 54.36999999999999 C 14.234000000000002 54.42999999999999 12.862000000000002 56.35099999999999 13.454 57.55499999999999 L 13.65 57.05199999999999 C 14.082 57.644999999999996 12.736 59.22699999999999 12.778 59.98199999999999 C 12.73 60.15699999999999 12.577 59.779999999999994 12.459 59.58299999999999 C 12.343 61.57299999999999 13.126999999999999 59.660999999999994 13.613999999999999 60.96099999999999 C 13.363999999999999 61.30599999999999 12.681 60.89199999999999 12.905 61.81599999999999 C 12.854999999999999 62.08099999999999 13.354 62.64799999999999 13.838 63.30599999999999 C 14.341999999999999 63.95899999999999 14.748999999999999 64.73299999999999 14.757 65.428 C 14.874 65.067 14.996 64.72 15.451 65.215 C 15.964 66.029 15.688 68.072 16.873 68.446 C 16.875 68.588 16.84 68.66199999999999 16.786 68.698 C 17.361 69.23899999999999 18.356 70.604 18.958000000000002 70.73299999999999 C 18.447000000000003 71.48299999999999 19.338 72.30599999999998 20.144000000000002 73.03099999999999 C 20.932000000000002 73.77799999999999 21.770000000000003 74.33 21.192 74.82199999999999 L 22.806 76.475 L 22.653000000000002 76.53899999999999 C 23.603 77.68399999999998 24.299000000000003 77.71999999999998 24.905 77.80699999999999 C 25.085 78.11099999999999 24.808 78.05199999999999 24.733 78.09199999999998 C 26.093 79.79099999999998 26.411 79.81199999999998 28.267 80.28099999999998 L 28.127 80.79599999999998 C 28.404 80.82699999999998 28.9 81.46099999999998 29.671999999999997 82.08199999999998 C 30.436999999999998 82.70199999999998 31.365999999999996 83.50699999999998 32.464 83.69399999999997 C 32.419 83.73499999999997 32.335 83.80099999999997 32.15 83.78999999999998 C 33.367999999999995 84.02999999999997 34.464999999999996 85.02499999999998 35.57 85.64499999999998 C 36.672 86.25399999999998 37.68 86.66099999999999 38.363 85.94999999999999 C 38.363 85.94999999999999 38.759 85.996 39.171 85.972 L 39.982 85.952 C 38.096 85.321 40.483 85.27199999999999 39.778999999999996 84.782 C 40.538 84.868 41.56099999999999 85.80199999999999 40.619 85.65599999999999 L 40.5 85.529 C 39.918 86.34 42.804 86.49 42.633 87.056 C 46.529 87.77 50.423 88.357 54.204 88.059 L 53.951 87.728 L 53.701 87.383 C 53.703 87.41 54.985 87.244 54.985 87.244 C 55.342 87.361 55.519 87.742 54.588 87.853 C 55.132 88.19 56.092 87.27199999999999 56.084 87.113 C 57.933 87.129 55.52 88.063 56.07 87.996 L 56.822 87.82499999999999 L 56.636 87.76699999999998 C 57.194 87.35199999999998 57.201 87.11799999999998 58.283 86.85899999999998 C 58.999 86.82699999999998 58.737 87.20799999999998 59.015 87.16599999999998 C 59.026 87.21799999999999 59.124 87.21799999999999 59.438 87.07999999999998 L 61.062000000000005 86.72499999999998 L 60.26200000000001 86.33599999999998 C 60.88900000000001 85.88999999999999 61.74900000000001 85.96499999999999 60.839000000000006 85.54299999999998 C 61.50900000000001 85.87999999999998 62.96900000000001 85.41299999999998 64.355 84.91599999999998 C 65.712 84.34599999999999 66.93 83.61099999999998 67.31400000000001 83.61499999999998 C 67.48917807697326 83.4173924179529 67.6808710841528 83.23506660833188 67.887 83.06999999999998 C 68.08018353392715 82.89110157132683 68.28352094110974 82.72349011253264 68.496 82.56799999999998 C 68.926 82.25599999999999 69.408 81.97999999999999 69.948 81.68099999999998 C 69.621 81.73899999999999 69.12899999999999 81.27899999999998 70.05999999999999 80.80499999999998 C 70.25299999999999 81.45499999999998 70.77099999999999 81.36299999999999 71.344 81.05499999999998 C 71.919 80.74899999999998 72.591 80.31199999999998 73.235 80.43199999999997 C 72.729 80.41199999999998 73.32 79.91999999999997 73.84 79.43899999999998 C 74.35900000000001 78.95199999999998 74.739 78.40499999999997 74.00800000000001 78.47299999999998 C 74.73400000000001 77.96199999999999 74.37200000000001 78.81999999999998 75.08200000000001 78.60199999999999 C 75.682 77.66599999999998 76.674 77.01799999999999 77.56700000000001 76.14899999999999 C 78.47900000000001 75.30699999999999 79.55900000000001 74.49299999999998 80.24700000000001 73.338 C 80.13100000000001 73.199 79.65700000000001 73.38499999999999 79.78600000000002 72.77499999999999 L 81.32900000000002 72.17899999999999 C 81.55900000000003 71.68999999999998 80.82100000000003 71.24499999999999 81.81200000000003 70.76399999999998 C 81.61800000000002 70.79799999999999 81.32900000000002 70.84499999999998 81.46200000000003 70.51799999999999 C 83.20300000000003 68.58499999999998 84.31800000000003 66.13399999999999 85.17000000000003 63.643999999999984 C 85.57900000000004 62.386999999999986 86.06700000000004 61.16099999999999 86.43500000000003 59.890999999999984 C 86.64500000000002 59.26399999999998 86.88100000000003 58.64199999999998 87.15600000000003 58.02399999999999 C 87.43800000000003 57.40799999999999 87.63800000000003 56.77099999999999 87.95300000000003 56.14799999999999 C 87.50700000000003 56.80399999999999 87.54800000000003 56.32199999999999 87.61700000000003 55.78299999999999 C 87.48300000000003 56.12099999999999 87.18900000000004 55.70899999999999 86.94300000000003 55.740999999999985 L 87.43500000000003 54.70899999999999 L 87.77400000000003 53.98899999999999 C 87.86700000000003 53.79099999999999 87.90600000000003 53.65599999999999 87.90600000000003 53.65599999999999 C 87.26900000000003 53.19999999999999 87.98300000000003 51.294999999999995 87.36100000000003 51.04399999999999 L 87.44100000000003 51.73499999999999 C 86.74000000000004 50.81099999999999 85.72000000000003 52.907999999999994 84.77300000000002 52.681999999999995 C 84.97300000000003 52.937 84.98600000000002 53.218999999999994 84.91300000000003 53.519999999999996 C 84.82200000000003 53.818999999999996 84.61600000000003 54.132999999999996 84.43200000000003 54.462999999999994 C 84.05800000000004 55.126999999999995 83.72600000000003 55.833999999999996 84.20600000000003 56.718999999999994 C 83.96300000000004 57.020999999999994 83.94700000000003 56.37 83.70100000000004 56.50999999999999 C 84.06800000000004 56.97699999999999 84.00600000000004 57.46099999999999 83.61200000000004 58.27299999999999 L 83.53800000000004 58.15299999999999 C 83.26200000000004 59.355999999999995 83.03500000000004 60.21399999999999 82.56200000000004 61.020999999999994 L 81.86900000000004 62.30799999999999 C 81.61900000000004 62.770999999999994 81.37400000000004 63.294999999999995 80.99100000000004 63.870999999999995 L 81.51200000000004 63.879999999999995 C 81.19600000000004 64.39 81.00700000000005 64.439 80.78000000000004 64.636 C 81.13300000000004 65.557 81.54000000000005 63.154999999999994 81.99400000000004 64.03699999999999 C 81.37800000000004 64.204 80.92200000000004 65.13999999999999 80.46500000000005 66.047 C 79.99100000000004 66.943 79.39300000000004 67.741 78.80800000000005 67.685 C 78.33500000000005 68.452 79.41200000000005 67.74600000000001 78.93500000000004 68.52 L 78.56100000000005 68.565 L 78.76100000000005 68.971 C 78.40500000000006 69.456 77.87900000000005 69.456 77.67400000000005 69.33800000000001 C 77.78400000000005 69.24100000000001 77.86000000000006 68.974 77.93400000000005 68.84 C 77.19100000000006 69.245 76.74500000000006 70.623 76.49600000000005 70.769 L 77.15700000000005 70.18900000000001 C 76.83700000000006 70.715 76.49600000000005 71.275 76.07300000000005 71.787 L 74.72000000000006 73.295 L 74.05300000000005 74.061 C 73.81200000000005 74.29400000000001 73.57700000000006 74.53 73.35200000000006 74.77000000000001 C 72.90200000000006 75.25000000000001 72.49000000000007 75.74400000000001 72.14300000000006 76.26400000000001 L 72.42300000000006 76.311 C 71.26800000000006 77.82700000000001 71.10200000000006 77.027 69.61500000000007 78.412 L 69.64400000000006 78.32400000000001 C 69.46000000000006 78.76800000000001 69.04100000000007 79.12900000000002 68.55200000000006 79.4 C 68.84700000000007 78.915 67.46200000000006 79.467 67.88000000000007 78.87400000000001 C 66.40800000000007 80.27100000000002 67.24700000000007 79.70500000000001 66.47500000000007 81.072 L 66.02400000000007 80.87700000000001 C 65.76800000000007 81.373 65.81200000000007 81.54800000000002 64.91900000000007 82.08500000000001 C 65.54300000000006 81.43100000000001 64.09400000000007 81.85600000000001 64.75800000000007 81.069 C 64.28446126587956 81.10175766913287 63.82360134823249 81.23650205660184 63.40700000000007 81.464 C 63.07889609536344 81.6243264308676 62.76392306076878 81.81023408185978 62.46500000000007 82.02 C 61.92100000000007 82.386 61.47700000000007 82.667 60.83600000000007 82.27199999999999 C 60.243000000000066 83.582 62.75100000000007 82.17599999999999 62.31100000000007 82.57199999999999 C 62.87000000000007 82.72399999999999 61.80700000000007 83.573 61.12500000000007 83.71399999999998 C 60.46400000000007 83.96299999999998 59.60500000000007 82.79299999999998 57.99300000000007 83.24399999999999 C 58.157000000000075 83.20699999999998 58.15000000000007 83.12799999999999 58.31300000000007 83.09199999999998 C 57.641000000000076 82.96799999999999 57.199000000000076 83.80399999999999 56.34100000000007 83.47099999999999 C 56.02100000000007 84.14699999999999 55.34200000000007 83.58699999999999 55.340000000000074 84.38699999999999 L 56.86500000000007 83.96999999999998 C 56.038000000000075 84.30399999999999 55.325000000000074 85.34999999999998 53.78100000000007 85.13199999999999 C 53.88000000000007 84.95599999999999 54.29300000000007 84.67999999999999 54.57500000000007 84.51799999999999 C 54.12000000000007 84.33899999999998 53.77300000000007 84.82499999999999 53.301000000000066 84.60099999999998 C 53.35100000000006 83.84699999999998 55.17200000000007 84.15199999999999 56.00700000000007 83.42799999999998 C 55.51100000000007 83.16399999999999 54.33800000000007 84.26299999999998 54.68300000000007 83.34199999999998 C 54.42600000000007 83.93299999999998 54.00300000000007 83.96299999999998 53.53000000000007 83.96899999999998 C 53.04800000000007 83.93199999999997 52.51800000000007 83.85399999999998 51.96900000000007 84.29999999999998 L 52.017000000000074 83.82299999999998 C 51.843000000000075 83.90599999999998 51.47900000000008 84.14899999999997 51.14400000000008 84.15399999999998 L 51.71600000000008 83.50899999999999 C 50.81700000000008 84.07399999999998 49.95400000000008 83.17599999999999 49.09400000000008 83.37599999999999 C 50.00200000000008 83.422 50.10500000000008 83.55999999999999 50.077000000000076 83.74499999999999 C 50.04900000000008 83.93499999999999 49.883000000000074 84.17699999999999 50.27800000000008 84.329 C 47.95400000000008 84.89699999999999 48.98400000000008 83.04299999999999 46.48200000000008 83.13999999999999 C 46.821000000000076 83.11299999999999 47.73400000000008 83.49099999999999 47.18200000000008 83.68999999999998 C 46.70300000000008 83.59399999999998 46.09300000000008 83.31299999999999 45.83700000000008 83.01399999999998 C 44.17900000000008 82.85899999999998 46.02700000000008 83.53699999999998 45.284000000000084 83.71899999999998 C 44.79800000000009 83.05899999999998 44.43200000000009 83.82699999999998 43.64800000000008 83.89499999999998 L 43.73100000000008 83.41999999999999 C 42.80400000000008 83.14499999999998 42.64700000000008 83.27499999999999 42.48600000000008 83.51199999999999 C 42.333000000000084 83.72399999999999 42.198000000000086 83.93099999999998 41.38500000000008 83.52899999999998 L 42.26100000000008 83.06399999999998 L 41.34100000000008 83.00499999999998 L 41.65900000000008 82.51999999999998 C 40.61900000000008 82.64799999999998 40.31400000000008 82.54499999999999 39.46900000000008 82.05699999999999 C 39.574000000000076 82.457 39.08000000000008 82.84499999999998 38.254000000000076 82.55899999999998 C 37.797000000000075 82.08699999999999 38.72000000000008 82.24099999999999 37.54900000000008 81.88699999999999 C 37.92000000000008 81.70099999999998 38.32500000000008 81.44599999999998 38.66800000000008 82.04399999999998 C 38.77100000000008 81.91399999999999 39.020000000000074 81.85199999999999 39.12200000000008 81.72299999999998 C 38.65100000000008 81.19899999999998 37.69200000000008 81.11999999999999 37.28100000000008 80.97599999999998 C 37.431000000000076 81.04899999999998 37.608000000000075 81.14099999999999 37.67900000000008 81.23899999999999 L 36.73600000000008 81.24499999999999 L 35.80900000000008 81.16699999999999 C 35.634000000000086 80.88099999999999 35.89500000000008 80.84599999999999 36.147000000000084 80.80899999999998 C 35.808000000000085 80.70399999999998 35.49300000000008 80.79799999999999 35.00100000000008 80.60699999999999 C 35.29500000000008 80.31299999999999 35.44600000000008 79.93699999999998 36.17300000000008 80.08299999999998 L 34.50300000000008 79.76299999999999 C 34.47600000000008 79.57 33.97000000000008 78.97699999999999 34.22900000000008 78.945 C 33.59700000000008 78.27 31.929000000000077 78.469 31.083000000000077 77.53299999999999 C 30.990000000000077 77.55799999999999 30.847000000000076 77.54199999999999 30.608000000000075 77.43199999999999 C 30.176000000000077 77.05199999999999 29.831000000000074 76.61699999999999 29.421000000000074 76.231 C 29.209713827246304 76.03268987747097 28.981139241851196 75.85364536328886 28.738000000000074 75.696 C 28.476400099090856 75.49999617329098 28.18772049645119 75.34302453404935 27.88100000000007 75.23 L 27.788000000000075 74.196 C 26.900000000000073 73.606 27.962000000000074 75.54899999999999 26.465000000000074 74.55 C 25.372000000000074 73.856 26.532000000000075 73.81099999999999 26.365000000000073 73.362 C 25.710000000000072 73.163 24.429000000000073 72.82499999999999 24.081000000000074 71.597 C 24.437000000000076 71.79199999999999 24.559000000000076 72.08 24.838000000000076 72.309 z M 17.953000000000003 61.20099999999999 C 18.137000000000004 61.41 18.604000000000003 61.77499999999999 18.401000000000003 62.04999999999999 C 17.785000000000004 61.97399999999999 17.952 61.66299999999999 17.953000000000003 61.20099999999999 z M 16.035000000000004 41.13399999999999 C 16.140000000000004 41.364999999999995 15.988000000000003 41.63699999999999 15.725000000000003 41.928999999999995 C 15.748000000000003 41.678 15.836000000000004 41.40599999999999 16.035000000000004 41.13399999999999 z M 62.553000000000004 13.634999999999994 C 62.539 13.637999999999995 62.529 13.639999999999995 62.516000000000005 13.645999999999994 C 61.968 13.245999999999993 62.160000000000004 13.395999999999994 62.553000000000004 13.634999999999994 z M 63.74100000000001 14.291999999999994 C 63.891000000000005 14.275999999999994 63.907000000000004 14.209999999999994 63.87800000000001 14.127999999999995 C 63.74600000000001 14.208999999999994 63.461000000000006 14.113999999999995 63.15100000000001 13.963999999999995 C 63.19700000000001 14.114999999999995 63.32800000000001 14.255999999999995 63.741000000000014 14.291999999999994 z M 59.11800000000001 86.957 L 58.83800000000001 86.89899999999999 C 59.36800000000001 86.61899999999999 59.24100000000001 86.78099999999999 59.11800000000001 86.957 z" stroke-linecap="round" />
</g>
		<g transform="matrix(3.6925794157 0 0 3.6925794157 -19.6481043215 -12.9558167322)" id="LgPuD8hXWUxm-0lsqqnjX"  >
<linearGradient id="SVGID_24" gradientUnits="userSpaceOnUse" gradientTransform="matrix(1 0 0 1 0 0)"  x1="12.211374190625275" y1="87.94176855058481" x2="89.25556582488166" y2="10.897576916328413">
<stop offset="0%" style="stop-color:rgb(44,192,0);stop-opacity: 1"/>
<stop offset="100%" style="stop-color:rgb(11,46,0);stop-opacity: 1"/>
</linearGradient>
<path style="stroke: none; stroke-width: 1; stroke-dasharray: none; stroke-linecap: butt; stroke-dashoffset: 0; stroke-linejoin: miter; stroke-miterlimit: 4; fill: url(#SVGID_24); fill-rule: nonzero; opacity: 1;" vector-effect="non-scaling-stroke"  transform=" translate(-45.4125, -45.9110639065)" d="M 16.146 43.549 C 16.062871206046374 43.59647197575866 15.967468044846438 43.618059552380544 15.872 43.611 C 15.936 43.727 16.028 43.745999999999995 16.146 43.549 z M 31.05 77.505 L 31.078 77.533 C 31.108313989122145 77.52340162384247 31.13602384380216 77.50698096921728 31.159 77.485 L 31.049999999999997 77.505 z M 44.092 16.348 C 43.836999999999996 16.316 43.685 16.250999999999998 43.577 16.174 C 43.585 16.291 43.714999999999996 16.373 44.092 16.348 z M 70.505 16.74 L 69.69399999999999 16.394 C 70.067 16.592 70.14099999999999 16.761 70.28199999999998 16.936999999999998 C 70.32499999999999 16.830999999999996 70.26699999999998 16.604 70.50499999999998 16.74 z M 74.506 23.515 C 74.634 23.551000000000002 74.696 23.679000000000002 74.823 23.713 L 74.95299999999999 23.528000000000002 C 74.567 23.197000000000003 74.18599999999999 23.095000000000002 74.50599999999999 23.515 z M 70.326 18.507 C 70.15299999999999 18.897000000000002 70.70299999999999 19.005000000000003 71.202 19.313000000000002 C 71.173 19.293000000000003 71.14399999999999 19.276000000000003 71.119 19.251 C 71.585 18.884 70.972 18.657 70.326 18.507 z M 71.31899999999999 19.383000000000003 C 71.47399999999999 19.475 71.62799999999999 19.577 71.75799999999998 19.698000000000004 C 71.94599999999998 19.555000000000003 71.60899999999998 19.527000000000005 71.31899999999999 19.383000000000003 z M 65.42399999999999 14.671000000000003 C 65.63999999999999 14.890000000000002 65.79599999999999 14.274000000000003 65.877 14.496000000000002 C 66.37599999999999 14.148000000000001 63.888999999999996 14.261000000000003 65.42399999999999 14.671000000000003 z M 69.99199999999999 19.868000000000002 L 70.094 19.344 L 69.6 19.516000000000002 z M 66.27499999999999 17.323 L 67.03399999999999 17.843 C 67.06099999999999 17.763 67.18799999999999 17.77 67.335 17.799 C 66.835 17.538999999999998 66.321 17.181 66.27499999999999 17.323 z" stroke-linecap="round" />
</g>
		<g transform="matrix(3.6925794157 0 0 3.6925794157 10.4155051136 -21.3480410203)" id="CXhGFkPmZLLu7A7wJfye2"  >
<linearGradient id="SVGID_25" gradientUnits="userSpaceOnUse" gradientTransform="matrix(1 0 0 1 0 0)"  x1="12.211374190625275" y1="87.94176855058481" x2="89.25556582488166" y2="10.897576916328413">
<stop offset="0%" style="stop-color:rgb(44,192,0);stop-opacity: 1"/>
<stop offset="100%" style="stop-color:rgb(11,46,0);stop-opacity: 1"/>
</linearGradient>
<path style="stroke: none; stroke-width: 1; stroke-dasharray: none; stroke-linecap: butt; stroke-dashoffset: 0; stroke-linejoin: miter; stroke-miterlimit: 4; fill: url(#SVGID_25); fill-rule: nonzero; opacity: 1;" vector-effect="non-scaling-stroke"  transform=" translate(-53.5541283987, -43.6383370824)" d="M 67.334 17.799 C 67.59100000000001 17.941 67.827 18.09 68.01 18.099 C 67.869 18.025 67.575 17.849 67.334 17.799 z M 68.85600000000001 19.354 L 68.682 19.125999999999998 L 68.155 18.762999999999998 z M 57.02100000000001 14.056 L 56.00800000000001 14.046 C 55.88000000000001 14.2 56.13000000000001 14.344999999999999 56.50600000000001 14.333 C 56.76200000000001 14.25 57.141000000000005 14.242 57.02100000000001 14.056000000000001 z M 59.58800000000001 16.093999999999998 C 59.36400000000001 15.928999999999998 59.376000000000005 15.816999999999998 59.275000000000006 15.620999999999997 L 59.08500000000001 16.212999999999997 L 59.58800000000001 16.093999999999998 z M 56.83400000000001 15.559999999999997 C 56.70200000000001 15.713999999999997 55.37900000000001 15.839999999999996 56.57400000000001 15.980999999999996 C 56.701000000000015 15.814999999999996 57.671000000000014 15.857999999999997 56.83400000000001 15.559999999999997 z M 42.30900000000001 14.944999999999997 L 42.549000000000014 14.874999999999996 L 42.30300000000001 13.886999999999997 z M 31.702000000000012 22.000999999999998 C 32.759000000000015 21.647 31.586000000000013 21.336999999999996 32.59200000000001 21.083 C 32.689000000000014 20.741999999999997 31.76800000000001 21.291999999999998 31.884000000000015 20.977999999999998 C 31.448000000000015 21.54 31.076000000000015 21.596999999999998 31.702000000000016 22.000999999999998 z M 31.88400000000001 20.977999999999998 C 31.95400000000001 20.887999999999998 32.02600000000001 20.787999999999997 32.09600000000001 20.668999999999997 C 32.00920407844445 20.759951799013407 31.937621046194685 20.864287445075558 31.88400000000001 20.977999999999998 z M 88.507 52.211 L 88.76 51.416 L 88.39200000000001 51.919999999999995 z M 87.828 50.658 L 88.486 50.481 L 87.92200000000001 50 C 87.94200000000001 50.178 87.98100000000001 50.525 87.82800000000002 50.658 z M 18.61 58.975 L 18.447 58.967 C 18.311 59.116 18.339 59.275 18.392 59.595 L 18.61 58.975 z M 21.948999999999998 67.616 L 21.877 67.472 L 21.538 68.044 z M 27.386 73.187 C 27.16 72.97 26.820999999999998 72.78699999999999 26.63 72.532 C 27.146 72.979 26.944 73.761 27.386 73.187 z" stroke-linecap="round" />
</g>
</g>
</g>
<g transform="matrix(1.3482406233 0 0 1.3482406233 250 178.7042715476)" id="dlbYKDUWPOQ1L3k-b8cgE"  >
<g style="" vector-effect="non-scaling-stroke"   >
		<g transform="matrix(3.6055548117 0 0 3.6055548117 14.2221756983 -14.2167007311)" id="GM6NawEX1pb_z2ZjvRccQ"  >
<path style="stroke: none; stroke-width: 1; stroke-dasharray: none; stroke-linecap: butt; stroke-dashoffset: 0; stroke-linejoin: miter; stroke-miterlimit: 4; fill: rgb(11,46,0); fill-rule: nonzero; opacity: 1;" vector-effect="non-scaling-stroke"  transform=" translate(-27.9436199466, -20.0635172131)" d="M 18.961 18.676 C 18.69573945371596 18.676274020258735 18.44130529901136 18.57082959688045 18.253999999999998 18.383 L 8.18 8.31 C 7.790718308450595 7.919045150776762 7.790718308450595 7.286954849223239 8.18 6.896000000000001 L 14.783 0.293 C 15.179894631600643 -0.08162216387541638 15.800105368399356 -0.08162216387541626 16.197 0.29299999999999987 L 26.27 10.367 C 26.457716358536377 10.554397436726331 26.563201161803164 10.80875439578806 26.563201161803164 11.074 C 26.563201161803168 11.339245604211941 26.457716358536377 11.59360256327367 26.27 11.781 L 19.667 18.384 C 19.480089269645493 18.57168682112175 19.22587974537916 18.67682730424607 18.961000000000002 18.676000000000002 z M 10.300999999999998 7.602999999999998 L 18.961 16.262 L 24.148999999999997 11.074000000000002 L 15.489999999999997 2.4140000000000015 L 10.300999999999997 7.6030000000000015 z M 40.396 40.114999999999995 C 40.13071748776627 40.11538475707005 39.876242494324934 40.009923409010206 39.689 39.821999999999996 L 29.615 29.746 C 29.224618061667133 29.355500148514185 29.224618061667133 28.72249985148581 29.615 28.331999999999997 L 36.219 21.729999999999997 C 36.40639743672633 21.54228364146362 36.66075439578806 21.43679883819683 36.926 21.43679883819683 C 37.19124560421194 21.43679883819683 37.445602563273674 21.54228364146362 37.633 21.729999999999997 L 47.706 31.805999999999997 C 47.89371635853638 31.99339743672633 47.99920116180317 32.24775439578806 47.99920116180317 32.513 C 47.99920116180317 32.77824560421194 47.89371635853638 33.03260256327367 47.706 33.22 L 41.103 39.822 C 40.91575750567507 40.00992340901021 40.66128251223373 40.11538475707006 40.396 40.115 z M 31.736 29.038999999999994 L 40.396 37.70099999999999 L 45.584 32.51299999999999 L 36.925000000000004 23.850999999999992 L 31.736000000000004 29.03899999999999 z" stroke-linecap="round" />
</g>
		<g transform="matrix(3.6055548117 0 0 3.6055548117 -8.4948455494 8.5179371665)" id="IFEsQ2nLBsC1QJaCuHx-X"  >
<path style="stroke: none; stroke-width: 1; stroke-dasharray: none; stroke-linecap: butt; stroke-dashoffset: 0; stroke-linejoin: miter; stroke-miterlimit: 4; fill: rgb(11,46,0); fill-rule: nonzero; opacity: 1;" vector-effect="non-scaling-stroke"  transform=" translate(-21.6430580541, -26.3689650803)" d="M 17.896 44.534 C 17.42986045965535 44.53419150710642 17.0254152265101 44.212294583085175 16.921 43.757999999999996 C 16.311 41.092999999999996 14.59 38.193 12.198999999999998 35.8 C 9.805999999999997 33.41 6.9049999999999985 31.689999999999998 4.239999999999998 31.077999999999996 C 3.884475558860736 30.994702514679666 3.602412421630907 30.724596848895626 3.5038021503814942 30.373011704567553 C 3.405191879132082 30.021426560239476 3.505649043027133 29.644034135441714 3.7659999999999982 29.387999999999995 C 5.814999999999998 27.390999999999995 8.501999999999999 26.290999999999993 11.329999999999998 26.290999999999993 C 13.138999999999998 26.290999999999993 14.886999999999999 26.74599999999999 16.433 27.612999999999992 L 16.581 27.464999999999993 L 13.971 24.855999999999995 C 12.978 23.860999999999994 12.992 22.232999999999993 14 21.224999999999994 L 26.279 8.944 C 27.259 7.9670000000000005 28.951 7.957000000000001 29.91 8.916 L 39.084 18.089 C 40.075 19.081999999999997 40.063 20.709999999999997 39.058 21.718 L 26.773 34 C 25.798 34.975 24.104 34.988 23.142 34.025 L 20.533 31.418 L 20.385 31.566 C 22.643 35.599 21.954 40.802 18.612000000000002 44.232 C 18.42387070020806 44.425170195890495 18.16564300541765 44.53408746380489 17.896 44.534 z M 6.565 29.699 C 9.022 30.625 11.469000000000001 32.245000000000005 13.613 34.385000000000005 C 15.753 36.529 17.372999999999998 38.974000000000004 18.299 41.429 C 20.143 38.554 20.2 34.817 18.291 31.975 C 18.024307100203124 31.57815222643547 18.075851886736917 31.0480371454172 18.414 30.71 L 19.826 29.297 C 20.013568257142268 29.109222956969912 20.26809075190093 29.00371334358423 20.5335 29.00371334358423 C 20.79890924809907 29.00371334358423 21.053431742857732 29.10922295696991 21.241 29.297 L 24.557 32.611000000000004 C 24.65777739846899 32.70991153760886 24.793801603740484 32.764609101633376 24.935 32.763000000000005 C 25.093999999999998 32.763000000000005 25.244999999999997 32.7 25.36 32.58500000000001 L 37.643 20.30400000000001 C 37.871 20.07500000000001 37.883 19.71500000000001 37.669000000000004 19.50100000000001 L 28.496000000000002 10.329000000000008 C 28.395577345062 10.231649998664517 28.260857785531307 10.177762174852239 28.121000000000002 10.179000000000007 C 27.95980197072361 10.178823318141118 27.80526702500329 10.243302934187595 27.692000000000004 10.358000000000008 L 15.414000000000003 22.638000000000005 C 15.189000000000004 22.863000000000007 15.176000000000004 23.230000000000004 15.386000000000003 23.440000000000005 L 18.702 26.756000000000004 C 18.890209239339388 26.943135128543894 18.996034851504003 27.197590365457756 18.996034851504003 27.463000000000005 C 18.996034851504003 27.728409634542253 18.890209239339388 27.982864871456115 18.702 28.170000000000005 L 17.289 29.583000000000006 C 16.951321366431667 29.921906374748993 16.42064205252395 29.973506023453062 16.024 29.706000000000007 C 13.256 27.848000000000006 9.39 27.874000000000006 6.565000000000001 29.699000000000005 z" stroke-linecap="round" />
</g>
		<g transform="matrix(3.6055548117 0 0 3.6055548117 -2.3309241947 2.314706018)" id="pS_dZsUSpnwjPr2uoRvb9"  >
<path style="stroke: none; stroke-width: 1; stroke-dasharray: none; stroke-linecap: butt; stroke-dashoffset: 0; stroke-linejoin: miter; stroke-miterlimit: 4; fill: rgb(11,46,0); fill-rule: nonzero; opacity: 1;" vector-effect="non-scaling-stroke"  transform=" translate(-23.3526205699, -24.6485)" d="M 12.643 38.865 C 11.7118845659585 38.8695011520578 10.817710664003098 38.50110006397871 10.16 37.842 C 8.781 36.461999999999996 8.802 34.196 10.205 32.789 C 10.59546531813037 32.39825853949471 11.228758539494715 32.39803468186963 11.619500000000002 32.7885 C 12.010241460505288 33.17896531813037 12.010465318130372 33.812258539494714 11.620000000000001 34.203 C 10.995000000000001 34.829 10.974 35.827000000000005 11.574000000000002 36.428000000000004 C 11.861000000000002 36.716 12.270000000000001 36.876000000000005 12.663000000000002 36.86600000000001 C 13.089459137239043 36.86012143012394 13.496465897885988 36.68661369367868 13.796000000000003 36.38300000000001 C 14.186465318130374 35.99225853949472 14.819758539494716 35.99203468186964 15.210500000000003 36.38250000000001 C 15.601241460505289 36.77296531813038 15.601465318130373 37.40625853949472 15.211000000000002 37.79700000000001 C 14.54317339834676 38.471064640028025 13.636807965624898 38.855093434153936 12.688000000000002 38.866000000000014 L 12.643000000000002 38.865000000000016 z M 35.794 16.8 C 35.38912842705042 16.800894340094807 35.02375197819139 16.5573326360288 34.86882565664634 16.183274317956084 C 34.71389933510128 15.80921599988337 34.800062302524 15.37863709176863 35.086999999999996 15.093 C 35.711999999999996 14.468 35.732 13.47 35.129999999999995 12.869 C 34.846750498485 12.585659143996878 34.461627609510764 12.427863236260004 34.06099999999999 12.431 L 34.04099999999999 12.431 C 33.615266225792475 12.436599373904158 33.20889729290584 12.609782243622425 32.90999999999999 12.912999999999998 C 32.51981082424454 13.3040176028802 31.88651760288019 13.304689175755454 31.49549999999999 12.914499999999999 C 31.10448239711979 12.524310824244543 31.103810824244533 11.8910176028802 31.49399999999999 11.499999999999998 C 32.16139598795152 10.825904123009742 33.06747217868728 10.441845658340224 34.01599999999999 10.430999999999997 C 34.97099999999999 10.431999999999997 35.87199999999999 10.782999999999998 36.54399999999999 11.454999999999998 C 37.92399999999999 12.836999999999998 37.90399999999999 15.102999999999998 36.49999999999999 16.506999999999998 C 36.313190950406884 16.694959350690176 36.05900214120609 16.800451306916568 35.79399999999999 16.799999999999997 z" stroke-linecap="round" />
</g>
		<g transform="matrix(3.6055548117 0 0 3.6055548117 -50.9848722019 50.8905432185)" id="y6CkrY0DR_0Yx0Id7ajRd"  >
<path style="stroke: none; stroke-width: 1; stroke-dasharray: none; stroke-linecap: butt; stroke-dashoffset: 0; stroke-linejoin: miter; stroke-miterlimit: 4; fill: rgb(11,46,0); fill-rule: nonzero; opacity: 1;" vector-effect="non-scaling-stroke"  transform=" translate(-9.8584565513, -38.121)" d="M 12.571 41.881 C 10.857785473599114 41.889992671382 9.212311761438833 41.21257178003302 8.002000000000002 40 C 6.768714512428495 38.7694115375181 6.089277144211444 37.08995211299859 6.120000000000001 35.348 C 6.127000000000001 34.795 6.599000000000001 34.382999999999996 7.1320000000000014 34.36 C 7.684000000000001 34.367 8.126000000000001 34.82 8.120000000000001 35.372 C 8.097036349011509 36.57527735686158 8.564953911739739 37.73604507612953 9.415999999999999 38.587 C 10.267 39.437000000000005 11.437000000000001 39.876000000000005 12.628 39.882000000000005 C 13.163818464819558 39.898649890600886 13.591405653329627 40.33446744630144 13.597838115285409 40.87050594261658 C 13.60427057724119 41.40654443893172 13.18726463147927 41.85249711224353 12.652 41.882000000000005 L 12.571 41.88100000000001 z" stroke-linecap="round" />
</g>
		<g transform="matrix(3.6055548117 0 0 3.6055548117 -56.4175503342 56.4000449034)" id="TynQbDScQUk6r2uH1yfqi"  >
<path style="stroke: none; stroke-width: 1; stroke-dasharray: none; stroke-linecap: butt; stroke-dashoffset: 0; stroke-linejoin: miter; stroke-miterlimit: 4; fill: rgb(11,46,0); fill-rule: nonzero; opacity: 1;" vector-effect="non-scaling-stroke"  transform=" translate(-8.3517042161, -39.6490593342)" d="M 12.488 44.896 C 9.99717732844491 44.90856003280435 7.604947592082878 43.923651357665086 5.8450000000000015 42.161 C 4.047 40.364000000000004 3.074 37.96 3.1039999999999996 35.39 C 3.1105715849650597 34.8424072322022 3.5563678027009225 34.401960569079165 4.103999999999999 34.402 L 4.115999999999999 34.402 C 4.667999999999999 34.409 5.1099999999999985 34.862 5.103999999999999 35.414 C 5.079999999999999 37.441 5.844999999999999 39.335 7.257999999999999 40.748000000000005 C 8.665970044619835 42.162437390885216 10.59170728695041 42.93865874508415 12.587 42.89600000000001 C 13.129999999999999 42.93600000000001 13.593 43.33200000000001 13.6 43.88300000000001 C 13.607 44.43400000000001 13.165 44.88900000000001 12.613 44.89600000000001 L 12.488 44.89600000000001 z" stroke-linecap="round" />
</g>
		<g transform="matrix(3.6055548117 0 0 3.6055548117 -62.0788710986 62.0623547962)" id="sd-ETZy3kbxMvMM-flM-y"  >
<path style="stroke: none; stroke-width: 1; stroke-dasharray: none; stroke-linecap: butt; stroke-dashoffset: 0; stroke-linejoin: miter; stroke-miterlimit: 4; fill: rgb(11,46,0); fill-rule: nonzero; opacity: 1;" vector-effect="non-scaling-stroke"  transform=" translate(-6.7815378866, -41.2194999982)" d="M 12.418 48.001 C 9.078 48.001 5.959 46.717999999999996 3.6189999999999998 44.378 C 1.244 42.002 -0.042 38.823 0 35.425 C 0.007114215712570685 34.877798731537425 0.45275248914799815 34.43795375565666 0.9999999999999998 34.437999999999995 L 1.012 34.437999999999995 C 1.2772225726593565 34.441163572113254 1.5303233723655656 34.5495666603054 1.7156134042506075 34.7393576646249 C 1.9009034361356494 34.9291486689444 2.00320176413092 35.184777885644856 2 35.45 C 1.965 38.304 3.042 40.972 5.034 42.964000000000006 C 7.019092194577101 44.96194458799965 9.736174973906019 46.059186316922585 12.552 46 C 12.818485431922205 45.9924113435138 13.076645466925836 46.093274853895146 13.267403897014164 46.27950936864541 C 13.458162327102492 46.465743883395675 13.565191741742721 46.72140920329905 13.564 46.988 C 13.56720176413092 47.25322211435514 13.464903436135648 47.5088513310556 13.279613404250606 47.6986423353751 C 13.094323372365565 47.88843333969459 12.841222572659357 47.99683642788674 12.576 48 L 12.418000000000001 48.001 z" stroke-linecap="round" />
</g>
</g>
</g>
<g transform="matrix(1.2371475498 0 0 1.2371475498 250 357.5384122085)" id="4eiBRIGI_R0z8JFGRCAKG"  >
<path style="stroke: rgb(0,0,0); stroke-width: 1.75; stroke-dasharray: none; stroke-linecap: butt; stroke-dashoffset: 0; stroke-linejoin: miter; stroke-miterlimit: 4; fill: rgb(255,255,255); fill-rule: nonzero; opacity: 1;" vector-effect="non-scaling-stroke"  transform=" translate(-0.71, 22.565)" d="M -77.98 -29.96 L -77.98 -35.19 C -77.98 -36.19 -78.15 -37.28 -78.5 -38.43 C -78.84 -39.58 -79.41 -40.66 -80.2 -41.66 C -80.98 -42.65 -82.01 -43.48 -83.26 -44.14 C -84.52 -44.8 -86.07 -45.13 -87.89 -45.13 L -118.96 -45.13 C -119.54 -45.13 -120.09 -45.03 -120.59 -44.82 C -121.1 -44.61 -121.53 -44.32 -121.9 -43.94 C -122.27 -43.56 -122.55 -43.12 -122.76 -42.62 C -122.97 -42.11 -123.08 -41.58 -123.08 -41.01 L -123.08 0 L -114.9 0 L -114.9 -36.95 L -87.89 -36.95 C -87.72 -36.95 -87.54 -36.94 -87.34 -36.92 C -87.14 -36.9 -86.95 -36.83 -86.77 -36.71 C -86.6 -36.6 -86.45 -36.42 -86.33 -36.18 C -86.22 -35.94 -86.16 -35.59 -86.16 -35.12 L -86.16 -29.96 C -86.16 -28.89 -86.33 -27.94 -86.66 -27.11 C -87 -26.29 -87.48 -25.58 -88.1 -24.99 C -88.71 -24.4 -89.45 -23.94 -90.3 -23.59 C -91.15 -23.24 -92.09 -23.03 -93.12 -22.94 L -111.62 -22.94 L -111.62 -14.76 L -105.74 -14.76 L -88.68 0 L -76.03 0 L -93.12 -14.76 C -92.11 -14.76 -91.03 -14.88 -89.89 -15.11 C -88.75 -15.34 -87.61 -15.71 -86.49 -16.22 C -85.37 -16.74 -84.29 -17.39 -83.26 -18.19 C -82.24 -18.99 -81.33 -19.95 -80.54 -21.07 C -79.75 -22.19 -79.13 -23.49 -78.67 -24.96 C -78.21 -26.43 -77.98 -28.1 -77.98 -29.96 Z M -32.65 -18.44 L -32.65 -26.69 L -58.49 -26.69 L -58.49 -18.44 Z M -28.97 0 L -28.97 -8.18 L -58.43 -8.18 C -59.52 -8.18 -60.35 -8.47 -60.92 -9.03 C -61.48 -9.6 -61.77 -10.42 -61.77 -11.49 L -61.77 -36.95 L -28.97 -36.95 L -28.97 -45.13 L -65.83 -45.13 C -66.42 -45.13 -66.96 -45.03 -67.46 -44.82 C -67.97 -44.61 -68.4 -44.32 -68.77 -43.94 C -69.14 -43.56 -69.43 -43.12 -69.64 -42.62 C -69.85 -42.11 -69.95 -41.58 -69.95 -41.01 L -69.95 -11.49 C -69.95 -9.37 -69.57 -7.58 -68.8 -6.12 C -68.04 -4.66 -67.08 -3.48 -65.94 -2.57 C -64.79 -1.65 -63.55 -1 -62.21 -0.6 C -60.87 -0.2 -59.63 0 -58.49 0 Z M 22.14 -13.28 C 22.14 -14.9 21.94 -16.35 21.54 -17.63 C 21.15 -18.91 20.6 -20.04 19.92 -21.02 C 19.24 -22.01 18.46 -22.86 17.58 -23.56 C 16.7 -24.26 15.77 -24.84 14.79 -25.31 C 13.82 -25.77 12.84 -26.11 11.85 -26.33 C 10.86 -26.55 9.93 -26.67 9.05 -26.69 L 8.99 -26.69 L -9.84 -26.69 C -11.39 -26.69 -12.6 -27.15 -13.47 -28.06 C -14.34 -28.97 -14.78 -30.21 -14.78 -31.79 C -14.78 -33.34 -14.34 -34.59 -13.47 -35.53 C -12.6 -36.48 -11.39 -36.95 -9.84 -36.95 L 18.02 -36.95 L 18.02 -45.13 L -9.84 -45.13 C -11.16 -45.13 -12.58 -44.9 -14.12 -44.43 C -15.65 -43.95 -17.07 -43.19 -18.38 -42.13 C -19.69 -41.07 -20.78 -39.69 -21.65 -38 C -22.52 -36.32 -22.96 -34.24 -22.96 -31.79 C -22.96 -29.33 -22.52 -27.26 -21.65 -25.56 C -20.78 -23.86 -19.69 -22.48 -18.38 -21.43 C -17.07 -20.38 -15.65 -19.62 -14.12 -19.15 C -12.58 -18.68 -11.16 -18.44 -9.84 -18.44 L 8.99 -18.44 C 9.74 -18.44 10.43 -18.32 11.05 -18.07 C 11.67 -17.81 12.19 -17.46 12.62 -17 C 13.05 -16.53 13.38 -15.99 13.61 -15.36 C 13.84 -14.73 13.96 -14.04 13.96 -13.28 C 13.96 -11.73 13.52 -10.49 12.65 -9.57 C 11.78 -8.64 10.56 -8.18 8.99 -8.18 L -22.58 -8.18 L -22.58 0 L 8.99 0 C 9.87 0 10.81 -0.1 11.8 -0.31 C 12.8 -0.52 13.78 -0.85 14.75 -1.29 C 15.71 -1.73 16.64 -2.3 17.55 -2.99 C 18.45 -3.68 19.24 -4.52 19.91 -5.51 C 20.58 -6.49 21.12 -7.63 21.53 -8.92 C 21.94 -10.21 22.14 -11.67 22.14 -13.28 Z M 66.05 -18.44 L 66.05 -26.69 L 40.21 -26.69 L 40.21 -18.44 Z M 69.73 0 L 69.73 -8.18 L 40.27 -8.18 C 39.18 -8.18 38.35 -8.47 37.78 -9.03 C 37.22 -9.6 36.93 -10.42 36.93 -11.49 L 36.93 -36.95 L 69.73 -36.95 L 69.73 -45.13 L 32.87 -45.13 C 32.29 -45.13 31.74 -45.03 31.24 -44.82 C 30.73 -44.61 30.3 -44.32 29.93 -43.94 C 29.56 -43.56 29.28 -43.12 29.07 -42.62 C 28.86 -42.11 28.75 -41.58 28.75 -41.01 L 28.75 -11.49 C 28.75 -9.37 29.13 -7.58 29.9 -6.12 C 30.67 -4.66 31.62 -3.48 32.76 -2.57 C 33.91 -1.65 35.15 -1 36.49 -0.6 C 37.84 -0.2 39.07 0 40.21 0 Z M 124.5 -18.25 L 124.5 -26.88 C 124.5 -29.61 124.02 -32.13 123.08 -34.45 C 122.13 -36.77 120.82 -38.76 119.14 -40.43 C 117.47 -42.1 115.48 -43.4 113.18 -44.35 C 110.88 -45.29 108.38 -45.76 105.67 -45.76 L 94.59 -45.76 C 91.89 -45.76 89.38 -45.29 87.07 -44.35 C 84.76 -43.4 82.77 -42.1 81.09 -40.43 C 79.41 -38.76 78.1 -36.77 77.14 -34.45 C 76.19 -32.13 75.71 -29.61 75.71 -26.88 L 75.71 -18.25 C 75.71 -15.51 76.19 -12.98 77.14 -10.67 C 78.1 -8.36 79.41 -6.37 81.09 -4.69 C 82.77 -3.01 84.76 -1.7 87.07 -0.77 C 89.38 0.16 91.89 0.63 94.59 0.63 L 105.67 0.63 C 108.38 0.63 110.88 0.16 113.18 -0.77 C 115.48 -1.7 117.47 -3.01 119.14 -4.69 C 120.82 -6.37 122.13 -8.36 123.08 -10.67 C 124.02 -12.98 124.5 -15.51 124.5 -18.25 Z M 116.31 -26.88 L 116.31 -18.25 C 116.31 -16.64 116.05 -15.18 115.54 -13.86 C 115.03 -12.55 114.3 -11.43 113.35 -10.5 C 112.41 -9.56 111.28 -8.84 109.97 -8.32 C 108.66 -7.81 107.21 -7.55 105.61 -7.55 L 94.59 -7.55 C 93 -7.55 91.55 -7.81 90.24 -8.32 C 88.92 -8.84 87.8 -9.56 86.85 -10.5 C 85.91 -11.43 85.18 -12.55 84.66 -13.86 C 84.15 -15.18 83.89 -16.64 83.89 -18.25 L 83.89 -26.88 C 83.89 -28.49 84.15 -29.96 84.66 -31.27 C 85.18 -32.58 85.91 -33.7 86.85 -34.64 C 87.8 -35.57 88.92 -36.29 90.24 -36.81 C 91.55 -37.32 93 -37.58 94.59 -37.58 L 105.67 -37.58 C 107.25 -37.58 108.69 -37.32 110 -36.81 C 111.31 -36.29 112.44 -35.57 113.37 -34.64 C 114.3 -33.7 115.03 -32.58 115.54 -31.27 C 116.05 -29.96 116.31 -28.49 116.31 -26.88 Z" stroke-linecap="round" />
</g>
</svg>